Coordinates
version=1
nRows=35
nColumns=18
inDegrees=yes

Units are S.I. units (second, meters, Newtons, ...)
If the header above contains a line with 'inDegrees', this indicates whether rotational values are in degrees (yes) or radians (no).

endheader
time	ground_thorax_rot_x	ground_thorax_rot_y	ground_thorax_rot_z	ground_thorax_tx	ground_thorax_ty	ground_thorax_tz	clav_prot	clav_elev	scapula_abduction	scapula_elevation	scapula_upward_rot	scapula_winging	plane_elv	shoulder_elv	axial_rot	elbow_flexion	pro_sup
      2.08000000	      0.98378119	     -7.09950940	    -11.14484482	      0.00000000	      0.00000000	      0.00000000	    -23.33494192	      2.86231359	      7.11704224	     -4.83331518	     45.03121878	     -3.76954250	     61.34021249	     57.66490168	    -22.71605224	      0.00000000	     34.32000000
      2.09000000	      0.61610674	     -7.14666246	    -10.98990217	      0.00000000	      0.00000000	      0.00000000	    -23.39841186	      2.89342062	      7.13246144	     -4.83211041	     45.19834483	     -3.80243126	     61.32165996	     58.00728751	    -22.70946885	      0.00000000	     34.32000000
      2.10000000	      0.53318115	     -7.16799916	    -11.38840041	      0.00000000	      0.00000000	      0.00000000	    -23.66011868	      2.71436579	      7.09644957	     -5.02156725	     45.66813133	     -3.81671576	     61.27387769	     58.80660375	    -21.35032298	      0.00000000	     34.32000000
      2.11000000	      0.40591221	     -7.17327093	    -11.46077241	      0.00000000	      0.00000000	      0.00000000	    -23.92306630	      2.82269347	      6.89406834	     -4.99531569	     46.02493306	     -3.90082324	     61.44100679	     59.25785348	    -20.36892581	      0.00000000	     34.32000000
      2.12000000	      0.81996149	     -7.54767619	    -11.31130730	      0.00000000	      0.00000000	      0.00000000	    -23.93026525	      3.64929380	      7.31803046	     -4.48670022	     46.81973734	     -4.24111614	     61.39730829	     59.55564298	    -21.48384092	      0.00000000	     34.32000000
      2.13000000	      0.60684071	     -7.50357542	    -11.39024928	      0.00000000	      0.00000000	      0.00000000	    -24.12526810	      3.54721833	      7.18894586	     -4.59176478	     47.05166738	     -4.24800702	     61.57514025	     60.04842015	    -20.35037496	      0.00000000	     34.32000000
      2.14000000	      0.50408072	     -7.46198079	    -11.49940569	      0.00000000	      0.00000000	      0.00000000	    -24.33793309	      3.50782475	      7.05892464	     -4.65847524	     47.34024291	     -4.28017036	     61.69354331	     60.55030106	    -19.32245893	      0.00000000	     34.32000000
      2.15000000	      0.35078705	     -7.46100179	    -11.57404446	      0.00000000	      0.00000000	      0.00000000	    -24.46567673	      3.41502494	      6.94135821	     -4.74095241	     47.44333880	     -4.27150094	     61.78078244	     61.07937144	    -18.07671599	      0.00000000	     34.32000000
      2.16000000	      0.07547520	     -7.51304724	    -11.40686551	      0.00000000	      0.00000000	      0.00000000	    -24.52811133	      3.47594309	      6.93177148	     -4.71425553	     47.58569848	     -4.30878267	     61.72993144	     61.34075828	    -18.08045577	      0.00000000	     34.32000000
      2.17000000	      0.15590821	     -7.45994731	    -11.69761947	      0.00000000	      0.00000000	      0.00000000	    -24.92986949	      3.57591778	      6.73054352	     -4.72449748	     48.23771187	     -4.43496074	     61.79956956	     62.03586877	    -17.76207160	      0.00000000	     34.32000000
      2.18000000	     -0.20343298	     -7.54339584	    -11.52700173	      0.00000000	      0.00000000	      0.00000000	    -24.99059386	      3.65735175	      6.74724811	     -4.68550798	     48.41414865	     -4.48217464	     61.79615765	     62.35830781	    -17.76873899	      0.00000000	     34.32000000
      2.19000000	      0.69887805	     -7.98002227	    -11.55375792	      0.00000000	      0.00000000	      0.00000000	    -25.09919118	      4.81221506	      7.36984175	     -3.98760386	     49.76573824	     -4.95319826	     61.79076136	     62.60452364	    -17.62335071	      0.00000000	     34.32000000
      2.20000000	      0.70398876	     -8.01151108	    -11.55622587	      0.00000000	      0.00000000	      0.00000000	    -25.16638086	      4.96515257	      7.51466823	     -3.91191470	     50.13197695	     -5.03609087	     61.65944450	     62.81633722	    -16.63706152	      0.00000000	     34.32000000
      2.21000000	      0.59365877	     -7.91034120	    -11.59299734	      0.00000000	      0.00000000	      0.00000000	    -25.24261550	      4.92381609	      7.58825360	     -3.96302275	     50.36971210	     -5.05573987	     61.38673845	     63.15886837	    -16.16890416	      0.00000000	     34.32000000
      2.22000000	      0.72070478	     -8.05658548	    -11.51983688	      0.00000000	      0.00000000	      0.00000000	    -25.15458976	      5.24619770	      8.00535483	     -3.76112713	     50.78403609	     -5.17288240	     60.87660108	     63.60817603	    -16.54676334	      0.00000000	     34.32000000
      2.23000000	      0.32613977	     -7.91605865	    -11.66648930	      0.00000000	      0.00000000	      0.00000000	    -25.30378422	      4.94814142	      7.70866810	     -3.97006039	     50.65226762	     -5.09534147	     60.84910081	     64.34796574	    -15.58111098	      0.00000000	     34.32000000
      2.24000000	      0.04367642	     -7.98088982	    -11.49490940	      0.00000000	      0.00000000	      0.00000000	    -25.37780925	      5.00534253	      7.68329338	     -3.94470367	     50.79769543	     -5.13006212	     60.76135032	     64.59128856	    -15.58840422	      0.00000000	     34.32000000
      2.25000000	      0.03295610	     -7.85833256	    -11.83765329	      0.00000000	      0.00000000	      0.00000000	    -25.73209873	      4.77906727	      7.46409938	     -4.15442982	     51.21812530	     -5.14104403	     60.57168516	     65.27697898	    -15.08913933	      0.00000000	     34.32000000
      2.26000000	     -0.19995672	     -7.83938428	    -11.62174658	      0.00000000	      0.00000000	      0.00000000	    -25.78308392	      4.80007104	      7.50776606	     -4.15391813	     51.38548269	     -5.16681936	     60.52714910	     65.52754984	    -15.10002635	      0.00000000	     34.32000000
      2.27000000	      0.32517512	     -8.23134574	    -11.82979937	      0.00000000	      0.00000000	      0.00000000	    -25.80904333	      5.36212029	      8.37797478	     -3.84152792	     52.65614508	     -5.42857551	     60.08535357	     65.93043827	    -15.89929646	      0.00000000	     34.32000000
      2.28000000	      0.23725662	     -8.36181583	    -11.90570036	      0.00000000	      0.00000000	      0.00000000	    -25.87480318	      5.58095578	      8.50489158	     -3.71355689	     53.01462060	     -5.51899094	     60.05782068	     66.69384847	    -16.05994401	      0.00000000	     34.32000000
      2.29000000	     -0.05394271	     -8.44687396	    -11.74261811	      0.00000000	      0.00000000	      0.00000000	    -25.94288639	      5.65084447	      8.47598276	     -3.67639991	     53.14622305	     -5.55329917	     59.99538134	     66.96370529	    -16.06532297	      0.00000000	     34.32000000
      2.30000000	     -0.05704984	     -8.19557304	    -12.03549337	      0.00000000	      0.00000000	      0.00000000	    -26.31657209	      5.53584460	      7.95315565	     -3.78804475	     53.27995372	     -5.57355327	     59.82605993	     67.64654832	    -15.31249174	      0.00000000	     34.32000000
      2.31000000	     -0.23744266	     -8.21282136	    -11.87106076	      0.00000000	      0.00000000	      0.00000000	    -26.36566082	      5.58834098	      7.94531873	     -3.76051593	     53.39092187	     -5.60070122	     59.75220270	     67.80786664	    -15.32123110	      0.00000000	     34.32000000
      2.32000000	      0.00030509	     -8.09698792	    -12.18078666	      0.00000000	      0.00000000	      0.00000000	    -26.80398024	      5.69871515	      7.89847975	     -3.75859164	     54.29613169	     -5.74695026	     59.43219526	     67.95078881	    -14.60895131	      0.00000000	     34.32000000
      2.33000000	      0.48339110	     -8.60269992	    -11.86505608	      0.00000000	      0.00000000	      0.00000000	    -26.73658883	      6.70727686	      8.42497939	     -3.08904127	     55.09407451	     -6.03348063	     59.41381578	     67.97696134	    -14.34990275	      0.00000000	     34.32000000
      2.34000000	      0.36670359	     -8.69917829	    -11.89861420	      0.00000000	      0.00000000	      0.00000000	    -26.79655801	      6.77159978	      8.47650719	     -3.05732574	     55.30089774	     -6.06838939	     59.14024123	     68.73994282	    -14.51502574	      0.00000000	     34.32000000
      2.35000000	      0.22754231	     -8.70119797	    -12.03368292	      0.00000000	      0.00000000	      0.00000000	    -27.10849094	      6.84749094	      8.22171174	     -3.04108686	     55.68110841	     -6.15110146	     59.23749603	     69.29108468	    -14.05220302	      0.00000000	     34.32000000
      2.36000000	     -0.07833248	     -8.81800384	    -11.88980389	      0.00000000	      0.00000000	      0.00000000	    -27.17069822	      6.91267793	      8.19804396	     -3.00494266	     55.80477461	     -6.18143361	     59.17859733	     69.57339573	    -14.06053956	      0.00000000	     34.32000000
      2.37000000	      0.44546614	     -9.15295626	    -11.95356960	      0.00000000	      0.00000000	      0.00000000	    -27.14440654	      7.47798740	      8.77022704	     -2.64092209	     56.59993857	     -6.34406620	     58.39992671	     70.23219689	    -17.43289526	      0.00000000	     34.32000000
      2.38000000	      0.40009847	     -9.07938843	    -11.98515097	      0.00000000	      0.00000000	      0.00000000	    -27.34595117	      7.40176690	      8.64303448	     -2.71589667	     56.84952429	     -6.37069785	     58.12231374	     70.66693717	    -18.74611171	      0.00000000	     34.32000000
      2.39000000	      0.07024815	     -8.78119046	    -12.15696786	      0.00000000	      0.00000000	      0.00000000	    -27.68749359	      6.87552203	      8.19386669	     -3.10469942	     56.87300902	     -6.30874294	     58.10938142	     71.18772862	    -17.73705437	      0.00000000	     34.32000000
      2.40000000	      0.26850604	     -9.07801229	    -12.08421900	      0.00000000	      0.00000000	      0.00000000	    -27.66349129	      7.21385645	      8.68644321	     -2.88850176	     57.50703434	     -6.40995263	     57.65490090	     71.35839154	    -18.22890750	      0.00000000	     34.32000000
      2.41000000	     -0.00696764	     -9.10029343	    -11.92935249	      0.00000000	      0.00000000	      0.00000000	    -27.72470966	      7.25101684	      8.67304237	     -2.87049024	     57.63108304	     -6.43367062	     57.59181401	     71.63115150	    -18.22302732	      0.00000000	     34.32000000
      2.42000000	      0.25534159	     -9.08532878	    -12.11419227	      0.00000000	      0.00000000	      0.00000000	    -27.94041468	      7.46441004	      8.72147718	     -2.75295679	     58.20643649	     -6.53880848	     57.17318849	     72.30074948	    -18.40026001	      0.00000000	     34.32000000
